<svg xmlns="http://www.w3.org/2000/svg" version="1.1" xmlns:xlink="http://www.w3.org/1999/xlink" xmlns:svgjs="http://svgjs.dev/svgjs" width="1500" height="242" viewBox="0 0 1500 242"><g transform="matrix(1,0,0,1,0.04510238235286579,-0.20735744733865147)"><svg viewBox="0 0 396 64" data-background-color="#ffffff" preserveAspectRatio="xMidYMid meet" height="242" width="1500" xmlns="http://www.w3.org/2000/svg" xmlns:xlink="http://www.w3.org/1999/xlink"><g id="tight-bounds" transform="matrix(1,0,0,1,0.24110800239964192,0.054838333180470045)"><svg viewBox="0 0 395.52 63.86032800961205" height="63.86032800961205" width="395.52"><g><svg viewBox="0 0 488.23009485507885 78.82922229371293" height="63.86032800961205" width="395.52"><g transform="matrix(1,0,0,1,92.71009485507884,10.01257081470937)"><svg viewBox="0 0 395.52 58.80408066429419" height="58.80408066429419" width="395.52"><g id="textblocktransform"><svg viewBox="0 0 395.52 58.80408066429419" height="58.80408066429419" width="395.52" id="textblock"><g><svg viewBox="0 0 395.52 58.80408066429419" height="58.80408066429419" width="395.52"><g transform="matrix(1,0,0,1,0,0)"><svg width="395.52" viewBox="1.88 -36.01 246.96 36.72" height="58.80408066429419" data-palette-color="#fb6300"><path d="M32.79-10.74L32.79-10.74Q32.79-8.47 32.21-6.74 31.64-5 30.6-3.74 29.57-2.47 28.15-1.61 26.73-0.76 25.06-0.24 23.39 0.27 21.52 0.49 19.65 0.71 17.72 0.71L17.72 0.71Q15.19 0.71 13.04 0.33 10.89-0.05 9-0.87 7.1-1.68 5.36-2.98 3.61-4.27 1.88-6.13L1.88-6.13 6.86-11.18Q7.54-9.5 8.74-8.07 9.94-6.64 11.36-5.62 12.79-4.59 14.33-4 15.87-3.42 17.24-3.42L17.24-3.42Q18.85-3.42 20.26-3.65 21.68-3.88 22.73-4.42 23.78-4.96 24.38-5.85 24.98-6.74 24.98-8.08L24.98-8.08Q24.98-9.11 24.51-9.84 24.05-10.57 23.3-11.1 22.56-11.62 21.61-11.99 20.65-12.35 19.67-12.61 18.68-12.87 17.72-13.07 16.77-13.28 16.04-13.5L16.04-13.5Q14.6-13.92 13.04-14.39 11.47-14.87 9.96-15.48 8.45-16.09 7.09-16.88 5.74-17.68 4.71-18.76 3.69-19.85 3.08-21.28 2.47-22.71 2.47-24.56L2.47-24.56Q2.47-26.78 3.02-28.5 3.56-30.22 4.57-31.49 5.57-32.76 6.93-33.63 8.3-34.5 9.94-35.02 11.57-35.55 13.42-35.78 15.26-36.01 17.19-36.01L17.19-36.01Q19.82-36.01 21.98-35.52 24.15-35.03 25.98-34.13 27.81-33.23 29.33-31.97 30.86-30.71 32.2-29.17L32.2-29.17 27.22-24.12Q26.64-25.88 25.6-27.29 24.56-28.71 23.29-29.72 22.02-30.74 20.63-31.29 19.24-31.84 17.94-31.84L17.94-31.84Q16.26-31.84 14.84-31.6 13.43-31.37 12.41-30.85 11.4-30.32 10.84-29.43 10.28-28.54 10.28-27.22L10.28-27.22Q10.28-26.17 10.69-25.44 11.11-24.71 11.8-24.19 12.5-23.68 13.38-23.35 14.26-23.02 15.2-22.78 16.14-22.53 17.05-22.35 17.97-22.17 18.73-21.95L18.73-21.95Q20.19-21.53 21.8-21.07 23.41-20.61 24.98-19.98 26.54-19.36 27.95-18.55 29.37-17.75 30.44-16.64 31.52-15.53 32.15-14.07 32.79-12.62 32.79-10.74ZM44.77-13.38L44.77-13.38Q46.29-13.04 47.8-12.84 49.31-12.65 50.85-12.65L50.85-12.65Q52.46-12.65 53.84-12.95 55.22-13.26 56.24-13.98 57.25-14.7 57.83-15.89 58.42-17.09 58.42-18.87L58.42-18.87Q58.42-20.31 58.03-21.51 57.64-22.71 56.87-23.56 56.1-24.41 54.98-24.89 53.85-25.37 52.37-25.37L52.37-25.37Q50.97-25.37 49.86-24.85 48.75-24.34 47.91-23.47 47.07-22.61 46.47-21.46 45.87-20.31 45.48-19.07 45.09-17.82 44.92-16.55 44.75-15.28 44.75-14.16L44.75-14.16Q44.75-13.96 44.75-13.77 44.75-13.57 44.77-13.38ZM65.11-18.95L65.11-18.95Q65.11-17.21 64.55-15.86 63.99-14.5 63.02-13.48 62.06-12.45 60.79-11.74 59.52-11.04 58.08-10.58 56.64-10.13 55.11-9.94 53.59-9.74 52.15-9.74L52.15-9.74Q50.31-9.74 48.53-10 46.75-10.25 45.02-10.82L45.02-10.82Q45.29-9.2 45.87-7.75 46.46-6.3 47.43-5.21 48.41-4.13 49.84-3.49 51.27-2.86 53.22-2.86L53.22-2.86Q54.51-2.86 55.69-3.25 56.86-3.64 57.83-4.35 58.81-5.05 59.56-6.03 60.3-7.01 60.76-8.2L60.76-8.2 64.33-6.88Q63.52-4.96 62.12-3.55 60.72-2.15 58.95-1.23 57.18-0.32 55.19 0.12 53.2 0.56 51.24 0.56L51.24 0.56Q48.02 0.56 45.29-0.52 42.55-1.61 40.57-3.56 38.6-5.52 37.47-8.23 36.35-10.94 36.35-14.16L36.35-14.16Q36.35-17.38 37.47-20.09 38.6-22.8 40.57-24.76 42.55-26.71 45.29-27.8 48.02-28.88 51.24-28.88L51.24-28.88Q52.81-28.88 54.44-28.66 56.08-28.44 57.61-27.97 59.15-27.49 60.52-26.73 61.89-25.98 62.9-24.87 63.91-23.75 64.51-22.29 65.11-20.83 65.11-18.95ZM94.23-25.71L94.23-25.71 89.59-18.02Q89.3-18.99 88.84-20.21 88.37-21.44 87.69-22.5 87.01-23.56 86.05-24.28 85.1-25 83.86-25L83.86-25Q82.71-25 81.87-24.41 81.03-23.83 80.44-22.89 79.85-21.95 79.47-20.76 79.1-19.58 78.89-18.37 78.68-17.16 78.61-16.05 78.54-14.94 78.54-14.14L78.54-14.14 78.54 0 70.26 0 70.26-28.2 73.43-28.2 76.78-21.63Q77.46-23.22 78.34-24.55 79.22-25.88 80.37-26.84 81.51-27.81 82.97-28.34 84.42-28.88 86.25-28.88L86.25-28.88Q87.2-28.88 88.37-28.72 89.55-28.56 90.67-28.19 91.79-27.81 92.74-27.2 93.7-26.59 94.23-25.71ZM123.28-28.2L112.18 0 104.75 0 94.5-28.2 102.75-28.2 110.27-5.74 117.57-28.2 123.28-28.2ZM152.55-4.49L152.55 0 127.31 0 127.31-35.16 152.55-35.16 152.55-30.66 137-30.66 137-19.8 149.01-19.8 149.01-15.33 137-15.33 137-4.49 152.55-4.49ZM185.36-28.2L185.36 0 177.11 0 177.11-3.37Q175.65-1.37 173.58-0.4 171.52 0.56 169.05 0.56L169.05 0.56Q165.83 0.56 163.29-0.59 160.75-1.73 159-3.72 157.24-5.71 156.31-8.4 155.38-11.08 155.38-14.16L155.38-14.16Q155.38-17.24 156.31-19.92 157.24-22.61 159-24.6 160.75-26.59 163.29-27.73 165.83-28.88 169.05-28.88L169.05-28.88Q170.69-28.88 172.17-28.39 173.64-27.91 174.88-27.01 176.11-26.12 177.05-24.87 177.99-23.61 178.53-22.07L178.53-22.07 182.19-28.2 185.36-28.2ZM177.06-14.16L177.06-14.16Q177.06-15.26 176.95-16.48 176.84-17.7 176.57-18.9 176.31-20.09 175.83-21.18 175.35-22.27 174.61-23.11 173.86-23.95 172.81-24.44 171.76-24.93 170.37-24.93L170.37-24.93Q168.98-24.93 167.96-24.43 166.93-23.93 166.2-23.08 165.47-22.24 164.99-21.14 164.51-20.04 164.25-18.85 163.98-17.65 163.87-16.44 163.76-15.23 163.76-14.16L163.76-14.16Q163.76-13.09 163.87-11.87 163.98-10.64 164.25-9.45 164.51-8.25 164.99-7.15 165.47-6.05 166.2-5.21 166.93-4.37 167.96-3.87 168.98-3.37 170.37-3.37L170.37-3.37Q171.64-3.37 172.63-3.89 173.62-4.42 174.36-5.3 175.11-6.18 175.62-7.3 176.13-8.42 176.45-9.62 176.77-10.82 176.92-12 177.06-13.18 177.06-14.16ZM216.51-9.01L216.51-9.01Q216.51-7.15 215.98-5.71 215.44-4.27 214.51-3.21 213.58-2.15 212.31-1.43 211.04-0.71 209.59-0.27 208.14 0.17 206.55 0.37 204.97 0.56 203.4 0.56L203.4 0.56Q201.3 0.56 199.69 0.29 198.08 0.02 196.62-0.57 195.15-1.17 193.7-2.12 192.25-3.08 190.46-4.44L190.46-4.44 195.27-8.37Q195.93-7.13 197.02-6.12 198.11-5.1 199.28-4.37 200.45-3.64 201.55-3.25 202.65-2.86 203.33-2.86L203.33-2.86Q203.89-2.86 204.6-2.89 205.31-2.93 206.04-3.04 206.77-3.15 207.48-3.37 208.19-3.59 208.74-3.97 209.29-4.35 209.62-4.92 209.95-5.49 209.95-6.3L209.95-6.3Q209.95-7.13 209.52-7.75 209.09-8.37 208.41-8.84 207.72-9.3 206.85-9.62 205.97-9.94 205.08-10.18 204.18-10.42 203.35-10.61 202.52-10.79 201.91-10.96L201.91-10.96Q200.79-11.28 199.55-11.61 198.3-11.94 197.08-12.37 195.86-12.79 194.75-13.38 193.64-13.96 192.8-14.78 191.95-15.6 191.45-16.71 190.95-17.82 190.95-19.31L190.95-19.31Q190.95-22.05 192.04-23.89 193.12-25.73 194.91-26.84 196.69-27.95 198.96-28.42 201.23-28.88 203.57-28.88L203.57-28.88Q205.19-28.88 206.97-28.55 208.75-28.22 210.43-27.58 212.12-26.93 213.58-26 215.05-25.07 216.03-23.88L216.03-23.88 211.22-19.92Q210.68-21.39 209.81-22.44 208.94-23.49 207.93-24.16 206.92-24.83 205.86-25.15 204.79-25.46 203.89-25.46L203.89-25.46Q203.01-25.46 201.91-25.39 200.82-25.32 199.85-24.98 198.89-24.63 198.21-23.94 197.54-23.24 197.54-22.02L197.54-22.02Q197.54-21.14 197.95-20.52 198.35-19.9 199.01-19.45 199.67-18.99 200.51-18.69 201.35-18.38 202.23-18.15 203.11-17.92 203.94-17.75 204.77-17.58 205.43-17.38L205.43-17.38Q206.55-17.07 207.81-16.74 209.07-16.41 210.29-15.98 211.51-15.55 212.64-14.98 213.78-14.4 214.63-13.57 215.49-12.74 216-11.63 216.51-10.52 216.51-9.01ZM228.5-13.38L228.5-13.38Q230.01-13.04 231.53-12.84 233.04-12.65 234.58-12.65L234.58-12.65Q236.19-12.65 237.57-12.95 238.95-13.26 239.96-13.98 240.97-14.7 241.56-15.89 242.15-17.09 242.15-18.87L242.15-18.87Q242.15-20.31 241.75-21.51 241.36-22.71 240.6-23.56 239.83-24.41 238.7-24.89 237.58-25.37 236.09-25.37L236.09-25.37Q234.7-25.37 233.59-24.85 232.48-24.34 231.64-23.47 230.79-22.61 230.19-21.46 229.6-20.31 229.21-19.07 228.82-17.82 228.64-16.55 228.47-15.28 228.47-14.16L228.47-14.16Q228.47-13.96 228.47-13.77 228.47-13.57 228.5-13.38ZM248.84-18.95L248.84-18.95Q248.84-17.21 248.27-15.86 247.71-14.5 246.75-13.48 245.78-12.45 244.51-11.74 243.24-11.04 241.8-10.58 240.36-10.13 238.84-9.94 237.31-9.74 235.87-9.74L235.87-9.74Q234.04-9.74 232.26-10 230.48-10.25 228.74-10.82L228.74-10.82Q229.01-9.2 229.6-7.75 230.18-6.3 231.16-5.21 232.14-4.13 233.56-3.49 234.99-2.86 236.95-2.86L236.95-2.86Q238.24-2.86 239.41-3.25 240.58-3.64 241.56-4.35 242.54-5.05 243.28-6.03 244.03-7.01 244.49-8.2L244.49-8.2 248.05-6.88Q247.25-4.96 245.84-3.55 244.44-2.15 242.67-1.23 240.9-0.32 238.91 0.12 236.92 0.56 234.97 0.56L234.97 0.56Q231.75 0.56 229.01-0.52 226.28-1.61 224.3-3.56 222.32-5.52 221.2-8.23 220.08-10.94 220.08-14.16L220.08-14.16Q220.08-17.38 221.2-20.09 222.32-22.8 224.3-24.76 226.28-26.71 229.01-27.8 231.75-28.88 234.97-28.88L234.97-28.88Q236.53-28.88 238.17-28.66 239.8-28.44 241.34-27.97 242.88-27.49 244.25-26.73 245.61-25.98 246.63-24.87 247.64-23.75 248.24-22.29 248.84-20.83 248.84-18.95Z" opacity="1" transform="matrix(1,0,0,1,0,0)" fill="#fb6300" class="wordmark-text-0" data-fill-palette-color="primary" id="text-0"></path></svg></g></svg></g></svg></g></svg></g><g><svg viewBox="0 0 78.82786270817492 78.82922229371293" height="78.82922229371293" width="78.82786270817492"><g><svg xmlns="http://www.w3.org/2000/svg" xmlns:xlink="http://www.w3.org/1999/xlink" version="1.1" x="0" y="0" viewBox="2 2 60 60.001034851504" style="enable-background:new 0 0 64 64;" xml:space="preserve" height="78.82922229371293" width="78.82786270817492" class="icon-icon-0" data-fill-palette-color="accent" id="icon-0"><path d="M42.343 52.02A5.04 5.04 0 0 0 45.882 50.553L54.569 41.85A3.63 3.63 0 0 0 54.179 36.384 3.645 3.645 0 0 0 49.825 36.384L43.667 41H43.649A3.5 3.5 0 0 0 40.5 39H34.303L32.06 37.504A3 3 0 0 0 30.395 37H23.74C23.024 37 22.331 37.256 21.788 37.722L16.052 42.638 14.707 41.293A1 1 0 0 0 13.293 41.293L7.293 47.293A1 1 0 0 0 7.293 48.707L20.293 61.707A0.997 0.997 0 0 0 21.707 61.707L27.707 55.707A1 1 0 0 0 27.707 54.293L26.414 53 27.12 52.294A1 1 0 0 1 27.828 52.001H27.829L42.337 52.02zM21 59.586L9.414 48 14 43.414 25.586 55zM27.828 50.001C27.026 50.001 26.272 50.313 25.706 50.88L25 51.586 17.47 44.056 23.088 39.24A1 1 0 0 1 23.74 39H30.394C30.592 39 30.784 39.058 30.949 39.168L33.445 40.832C33.609 40.941 33.803 41 34 41H40.5C41.327 41 41.999 41.672 42 42.498 42 42.519 41.995 42.539 41.994 42.56A1.5 1.5 0 0 1 41.97 42.799C41.834 43.484 41.148 44 40.371 44H31V46H40.5C41.549 46 42.48 45.527 43.122 44.794L43.14 44.772C43.257 44.636 43.367 44.495 43.463 44.342 43.508 44.272 43.543 44.195 43.583 44.121 43.638 44.017 43.697 43.917 43.741 43.807 43.802 43.658 43.846 43.5 43.886 43.341 43.899 43.29 43.92 43.242 43.93 43.19L43.934 43.175C43.946 43.116 43.955 43.058 43.964 42.999H44C44.217 42.999 44.427 42.929 44.6 42.799L51.024 37.982A1.635 1.635 0 0 1 52.978 37.982 1.626 1.626 0 0 1 53.152 40.436L44.465 49.139A3.02 3.02 0 0 1 42.342 50.019H42.338L27.83 50z" fill="#e9c100" data-fill-palette-color="accent"></path><polygon points="4,8 6,8 6,6 8,6 8,4 6,4 6,2 4,2 4,4 2,4 2,6 4,6 " fill="#e9c100" data-fill-palette-color="accent"></polygon><polygon points="12,10 14,10 14,8 16,8 16,6 14,6 14,4 12,4 12,6 10,6 10,8 12,8 " fill="#e9c100" data-fill-palette-color="accent"></polygon><path d="M44 18V20C47.859 20 51 23.14 51 27H53C53 22.038 48.963 18 44 18" fill="#e9c100" data-fill-palette-color="accent"></path><path d="M61.587 29.212C59.547 17.419 49.745 9.474 36 8.188V5C36 3.346 34.654 2 33 2H31C29.346 2 28 3.346 28 5V8.188C14.255 9.474 4.453 17.419 2.413 29.212A0.98 0.98 0 0 0 2 30V34A1 1 0 0 0 3 35H61A1 1 0 0 0 62 34V30A0.98 0.98 0 0 0 61.587 29.212M30 8.047V5C30 4.449 30.448 4 31 4H33C33.552 4 34 4.449 34 5V8.047C33.954 8.045 33.907 8.046 33.861 8.044 33.247 8.018 32.628 8 32 8S30.753 8.018 30.139 8.044C30.093 8.046 30.046 8.045 30 8.047M29.148 10.103A41 41 0 0 1 34.853 10.103C47.942 11.011 57.379 18.188 59.521 29H4.479C6.621 18.188 16.058 11.011 29.148 10.103M60 33H4V31H60z" fill="#e9c100" data-fill-palette-color="accent"></path></svg></g></svg></g></svg></g><defs></defs></svg><rect width="395.52" height="63.86032800961205" fill="none" stroke="none" visibility="hidden"></rect></g></svg></g></svg>